#!OML:ASF X:\für Bonn\!DataBase\2005_08_12_Daniel\c3d\Daniel.ASF
:FULLY-SPECIFIED
:DEGREES
49
root -3.59513 13.0406 -1.09069 336.101 -89.2937 -355.195
lowerback 36.7117 -2.20911 2.46286
upperback 2.82042 -2.80439 -2.77513
thorax -15.6688 -1.65291 -3.04547
lowerneck 9.23192 2.31294 -2.39881
upperneck -0.205693 2.79366 0.952411
head -1.68414 1.35322 0.59131
rclavicle 1.2424e-015 7.15625e-015
rhumerus 85.634 -24.5097 -200.8
rradius 11.8072
rwrist 163.825
rhand -23.7747 13.934
rfingers 7.12502
rthumb 2.69499 -16.0287
lclavicle 1.2424e-015 7.15625e-015
lhumerus 62.9849 0.474794 97.355
lradius 6.85665
lwrist -71.7054
lhand -15.7083 2.95454
lfingers 7.12502
lthumb 10.4816 32.6732
rfemur -29.2954 -29.9848 -2.07127
rtibia 98.0146
rfoot -18.2017 27.2528
rtoes -4.63098
lfemur 147.064 161.227 -182.91
ltibia 96.9619
lfoot -25.8596 -33.239
ltoes 6.20242
50
root -3.58935 12.8402 -1.09375 338.568 -89.2999 -358.024
lowerback 37.2511 -2.21932 2.47476
upperback 2.85453 -2.81727 -2.7632
thorax -15.7186 -1.66339 -3.0283
lowerneck 9.28806 2.30856 -2.40131
upperneck -0.330597 2.78734 0.934788
head -1.73472 1.3516 0.585526
rclavicle -1.18277e-014 -1.35174e-014
rhumerus 85.8627 -24.268 -201.446
rradius 11.7447
rwrist 164.324
rhand -23.8892 14.0668
rfingers 7.12502
rthumb 2.58435 -15.8973
lclavicle -1.18277e-014 -1.35174e-014
lhumerus 63.0018 0.52247 97.3523
lradius 7.12701
lwrist -71.8149
lhand -15.3297 2.7983
lfingers 7.12502
lthumb 10.8467 32.4982
rfemur -29.9307 -30.8771 -3.03283
rtibia 100.088
rfoot -17.7261 28.5017
rtoes -4.05899
lfemur 146.029 160.446 -182.145
ltibia 99.1757
lfoot -25.2239 -34.3164
ltoes 6.7158
51
root -3.58304 12.6372 -1.09714 342.418 -89.2852 -362.245
lowerback 37.7315 -2.23743 2.48641
upperback 2.95238 -2.8403 -2.74242
thorax -15.7854 -1.67788 -2.98905
lowerneck 9.38589 2.31226 -2.41219
upperneck -0.473507 2.78882 0.897594
head -1.7987 1.35433 0.574197
rclavicle 4.37326e-015 -8.74653e-015
rhumerus 86.0564 -24.0761 -201.924
rradius 11.635
rwrist 164.767
rhand -24.0238 14.1413
rfingers 7.12502
rthumb 2.45433 -15.8243
lclavicle 4.37326e-015 -8.74653e-015
lhumerus 63.0027 0.602297 97.3478
lradius 7.39167
lwrist -71.8643
lhand -14.9778 2.5837
lfingers 7.12502
lthumb 11.1862 32.2655
rfemur -30.5055 -31.8409 -4.06891
rtibia 102.14
rfoot -17.2481 29.8036
rtoes -3.52828
lfemur 144.996 159.623 -181.301
ltibia 101.367
lfoot -24.49 -35.4929
ltoes 7.17233
52
root -3.57821 12.4339 -1.10011 343.704 -89.2835 -363.894
lowerback 38.18 -2.24347 2.497
upperback 3.06419 -2.85402 -2.74551
thorax -15.822 -1.68925 -2.98067
lowerneck 9.40433 2.29811 -2.38755
upperneck -0.562037 2.7724 0.860537
head -1.82969 1.34797 0.558493
rclavicle 1.23743e-014 1.27222e-014
rhumerus 86.019 -23.8925 -201.767
rradius 11.5037
rwrist 164.637
rhand -24.0318 14.1702
rfingers 7.12502
rthumb 2.44662 -15.7955
lclavicle 1.23743e-014 1.27222e-014
lhumerus 62.9996 0.630754 97.3466
lradius 7.659
lwrist -71.9141
lhand -14.6266 2.43103
lfingers 7.12502
lthumb 11.5249 32.0942
rfemur -31.031 -32.8743 -5.25211
rtibia 104.176
rfoot -16.7627 31.2108
rtoes -3.18686
lfemur 144.008 158.722 -180.435
ltibia 103.518
lfoot -23.7359 -36.6799
ltoes 7.63436
53
root -3.57334 12.2296 -1.10265 346.354 -89.2723 -366.923
lowerback 38.6413 -2.25928 2.52292
upperback 3.17776 -2.87244 -2.73977
thorax -15.8591 -1.70354 -2.96808
lowerneck 9.47179 2.28203 -2.33698
upperneck -0.700055 2.75367 0.77796
head -1.88448 1.34183 0.523385
rclavicle 1.83876e-015 7.95139e-015
rhumerus 85.8081 -23.741 -201.135
rradius 11.3675
rwrist 164.165
rhand -24.0566 14.1642
rfingers 7.12502
rthumb 2.42268 -15.8018
lclavicle 1.83876e-015 7.95139e-015
lhumerus 63.0008 0.691641 97.3379
lradius 7.91446
lwrist -71.9841
lhand -14.3198 2.20172
lfingers 7.12502
lthumb 11.8207 31.8481
rfemur -31.4699 -34.001 -6.55586
rtibia 106.19
rfoot -16.3028 32.6994
rtoes -2.91389
lfemur 143.07 157.749 -179.477
ltibia 105.631
lfoot -22.9155 -37.9384
ltoes 8.02569
54
root -3.56869 12.0274 -1.10498 348.091 -89.2399 -369.048
lowerback 39.1114 -2.28304 2.54557
upperback 3.28637 -2.90279 -2.7377
thorax -15.9041 -1.72295 -2.9519
lowerneck 9.52371 2.26891 -2.28659
upperneck -0.819868 2.73889 0.693422
head -1.93065 1.33764 0.487664
rclavicle 1.25731e-014 1.74931e-014
rhumerus 85.5779 -23.5961 -200.454
rradius 11.2374
rwrist 163.676
rhand -24.0114 14.1121
rfingers 7.12502
rthumb 2.46635 -15.8534
lclavicle 1.25731e-014 1.74931e-014
lhumerus 63.0011 0.743725 97.337
lradius 8.11356
lwrist -72.0877
lhand -14.1254 2.01888
lfingers 7.12502
lthumb 12.0082 31.6544
rfemur -31.7893 -35.2237 -8.03923
rtibia 108.164
rfoot -15.8316 34.298
rtoes -2.74534
lfemur 142.167 156.71 -178.47
ltibia 107.69
lfoot -21.9662 -39.2466
ltoes 8.47417
55
root -3.5645 11.8252 -1.10739 349.615 -89.211 -370.954
lowerback 39.5789 -2.30534 2.57648
upperback 3.39196 -2.929 -2.74297
thorax -15.9498 -1.74138 -2.95015
lowerneck 9.52009 2.2551 -2.22942
upperneck -0.8866 2.72608 0.636596
head -1.94975 1.33336 0.460174
rclavicle 1.88348e-014 1.11319e-014
rhumerus 85.3235 -23.4533 -199.671
rradius 11.1129
rwrist 163.079
rhand -23.9142 14.0809
rfingers 7.12502
rthumb 2.56021 -15.8835
lclavicle 1.88348e-014 1.11319e-014
lhumerus 63.0029 0.803784 97.318
lradius 8.25768
lwrist -72.1827
lhand -13.9947 1.87393
lfingers 7.12502
lthumb 12.1343 31.502
rfemur -32.0095 -36.5567 -9.68266
rtibia 110.1
rfoot -15.3841 36.0286
rtoes -2.69138
lfemur 141.31 155.571 -177.387
ltibia 109.696
lfoot -20.9046 -40.6204
ltoes 9.02138
